{
	"patcher" : 	{
		"fileversion" : 1,
		"rect" : [ 279.0, 44.0, 576.0, 754.0 ],
		"bglocked" : 0,
		"defrect" : [ 279.0, 44.0, 576.0, 754.0 ],
		"openrect" : [ 0.0, 0.0, 0.0, 0.0 ],
		"openinpresentation" : 0,
		"default_fontsize" : 12.0,
		"default_fontface" : 0,
		"default_fontname" : "Arial",
		"gridonopen" : 0,
		"gridsize" : [ 15.0, 15.0 ],
		"gridsnaponopen" : 0,
		"toolbarvisible" : 1,
		"boxanimatetime" : 200,
		"imprint" : 0,
		"enablehscroll" : 1,
		"enablevscroll" : 1,
		"devicewidth" : 0.0,
		"boxes" : [ 			{
				"box" : 				{
					"maxclass" : "comment",
					"text" : "icky fun:",
					"numinlets" : 1,
					"fontsize" : 12.0,
					"numoutlets" : 0,
					"patching_rect" : [ 420.0, 600.0, 116.0, 20.0 ],
					"id" : "obj-18",
					"fontname" : "Arial"
				}

			}
, 			{
				"box" : 				{
					"maxclass" : "newobj",
					"text" : "p reaction_diffusion",
					"numinlets" : 0,
					"fontsize" : 12.0,
					"numoutlets" : 0,
					"patching_rect" : [ 420.0, 630.0, 114.0, 20.0 ],
					"id" : "obj-15",
					"fontname" : "Arial",
					"patcher" : 					{
						"fileversion" : 1,
						"rect" : [ 452.0, 44.0, 687.0, 543.0 ],
						"bglocked" : 0,
						"defrect" : [ 452.0, 44.0, 687.0, 543.0 ],
						"openrect" : [ 0.0, 0.0, 0.0, 0.0 ],
						"openinpresentation" : 0,
						"default_fontsize" : 12.0,
						"default_fontface" : 0,
						"default_fontname" : "Arial",
						"gridonopen" : 0,
						"gridsize" : [ 15.0, 15.0 ],
						"gridsnaponopen" : 0,
						"toolbarvisible" : 1,
						"boxanimatetime" : 200,
						"imprint" : 0,
						"enablehscroll" : 1,
						"enablevscroll" : 1,
						"devicewidth" : 0.0,
						"visible" : 1,
						"boxes" : [ 							{
								"box" : 								{
									"maxclass" : "newobj",
									"text" : "p differential_equation_and_integration",
									"numinlets" : 3,
									"fontsize" : 12.0,
									"numoutlets" : 3,
									"outlettype" : [ "jit_matrix", "jit_matrix", "jit_matrix" ],
									"patching_rect" : [ 315.0, 330.0, 218.0, 20.0 ],
									"id" : "obj-41",
									"fontname" : "Arial",
									"patcher" : 									{
										"fileversion" : 1,
										"rect" : [ 25.0, 69.0, 743.0, 488.0 ],
										"bglocked" : 0,
										"defrect" : [ 25.0, 69.0, 743.0, 488.0 ],
										"openrect" : [ 0.0, 0.0, 0.0, 0.0 ],
										"openinpresentation" : 0,
										"default_fontsize" : 12.0,
										"default_fontface" : 0,
										"default_fontname" : "Arial",
										"gridonopen" : 0,
										"gridsize" : [ 15.0, 15.0 ],
										"gridsnaponopen" : 0,
										"toolbarvisible" : 1,
										"boxanimatetime" : 200,
										"imprint" : 0,
										"enablehscroll" : 1,
										"enablevscroll" : 1,
										"devicewidth" : 0.0,
										"boxes" : [ 											{
												"box" : 												{
													"maxclass" : "comment",
													"text" : "differential equation (dv/dt)",
													"numinlets" : 1,
													"fontsize" : 12.0,
													"numoutlets" : 0,
													"patching_rect" : [ 450.0, 285.0, 150.0, 20.0 ],
													"id" : "obj-34",
													"fontname" : "Arial"
												}

											}
, 											{
												"box" : 												{
													"maxclass" : "comment",
													"text" : "integration",
													"numinlets" : 1,
													"fontsize" : 12.0,
													"numoutlets" : 0,
													"patching_rect" : [ 120.0, 345.0, 150.0, 20.0 ],
													"id" : "obj-33",
													"fontname" : "Arial"
												}

											}
, 											{
												"box" : 												{
													"maxclass" : "newobj",
													"text" : "jit.normalize",
													"numinlets" : 1,
													"fontsize" : 12.0,
													"numoutlets" : 2,
													"outlettype" : [ "jit_matrix", "" ],
													"patching_rect" : [ 45.0, 405.0, 75.0, 20.0 ],
													"id" : "obj-18",
													"fontname" : "Arial"
												}

											}
, 											{
												"box" : 												{
													"maxclass" : "newobj",
													"text" : "jit.op @op +",
													"numinlets" : 2,
													"fontsize" : 12.0,
													"numoutlets" : 2,
													"outlettype" : [ "jit_matrix", "" ],
													"patching_rect" : [ 45.0, 375.0, 649.0, 20.0 ],
													"id" : "obj-17",
													"fontname" : "Arial"
												}

											}
, 											{
												"box" : 												{
													"maxclass" : "newobj",
													"text" : "jit.expr @inputs 4 @expr (in[3]*in[0])-(in[0]*in[0]*in[1])",
													"linecount" : 2,
													"numinlets" : 4,
													"fontsize" : 12.0,
													"numoutlets" : 2,
													"outlettype" : [ "jit_matrix", "" ],
													"patching_rect" : [ 270.0, 285.0, 163.0, 34.0 ],
													"id" : "obj-13",
													"fontname" : "Arial"
												}

											}
, 											{
												"box" : 												{
													"maxclass" : "newobj",
													"text" : "jit.expr @inputs 4 @expr in[2]-(in[0]*(1+in[3]))+(in[0]*in[0]*in[1])",
													"linecount" : 2,
													"numinlets" : 4,
													"fontsize" : 12.0,
													"numoutlets" : 2,
													"outlettype" : [ "jit_matrix", "" ],
													"patching_rect" : [ 45.0, 285.0, 213.0, 34.0 ],
													"id" : "obj-5",
													"fontname" : "Arial"
												}

											}
, 											{
												"box" : 												{
													"maxclass" : "newobj",
													"text" : "jit.pack 2",
													"numinlets" : 2,
													"fontsize" : 12.0,
													"numoutlets" : 2,
													"outlettype" : [ "jit_matrix", "" ],
													"patching_rect" : [ 45.0, 345.0, 58.0, 20.0 ],
													"id" : "obj-2",
													"fontname" : "Arial"
												}

											}
, 											{
												"box" : 												{
													"maxclass" : "newobj",
													"text" : "jit.unpack 2",
													"numinlets" : 1,
													"fontsize" : 12.0,
													"numoutlets" : 3,
													"outlettype" : [ "jit_matrix", "jit_matrix", "" ],
													"patching_rect" : [ 45.0, 165.0, 71.0, 20.0 ],
													"id" : "obj-3",
													"fontname" : "Arial"
												}

											}
, 											{
												"box" : 												{
													"maxclass" : "inlet",
													"numinlets" : 0,
													"numoutlets" : 1,
													"outlettype" : [ "float" ],
													"patching_rect" : [ 180.0, 165.0, 25.0, 25.0 ],
													"id" : "obj-35",
													"comment" : ""
												}

											}
, 											{
												"box" : 												{
													"maxclass" : "inlet",
													"numinlets" : 0,
													"numoutlets" : 1,
													"outlettype" : [ "float" ],
													"patching_rect" : [ 240.0, 165.0, 25.0, 25.0 ],
													"id" : "obj-36",
													"comment" : ""
												}

											}
, 											{
												"box" : 												{
													"maxclass" : "inlet",
													"numinlets" : 0,
													"numoutlets" : 1,
													"outlettype" : [ "jit_matrix" ],
													"patching_rect" : [ 45.0, 45.0, 25.0, 25.0 ],
													"id" : "obj-37",
													"comment" : ""
												}

											}
, 											{
												"box" : 												{
													"maxclass" : "outlet",
													"numinlets" : 1,
													"numoutlets" : 0,
													"patching_rect" : [ 45.0, 450.0, 25.0, 25.0 ],
													"id" : "obj-38",
													"comment" : ""
												}

											}
, 											{
												"box" : 												{
													"maxclass" : "outlet",
													"numinlets" : 1,
													"numoutlets" : 0,
													"patching_rect" : [ 90.0, 195.0, 25.0, 25.0 ],
													"id" : "obj-39",
													"comment" : ""
												}

											}
, 											{
												"box" : 												{
													"maxclass" : "outlet",
													"numinlets" : 1,
													"numoutlets" : 0,
													"patching_rect" : [ 116.0, 195.0, 25.0, 25.0 ],
													"id" : "obj-40",
													"comment" : ""
												}

											}
 ],
										"lines" : [ 											{
												"patchline" : 												{
													"source" : [ "obj-17", 0 ],
													"destination" : [ "obj-18", 0 ],
													"hidden" : 0,
													"midpoints" : [  ]
												}

											}
, 											{
												"patchline" : 												{
													"source" : [ "obj-3", 1 ],
													"destination" : [ "obj-13", 1 ],
													"hidden" : 0,
													"midpoints" : [ 80.5, 234.5, 327.5, 234.5 ]
												}

											}
, 											{
												"patchline" : 												{
													"source" : [ "obj-3", 0 ],
													"destination" : [ "obj-13", 0 ],
													"hidden" : 0,
													"midpoints" : [ 54.5, 234.5, 279.5, 234.5 ]
												}

											}
, 											{
												"patchline" : 												{
													"source" : [ "obj-13", 0 ],
													"destination" : [ "obj-2", 1 ],
													"hidden" : 0,
													"midpoints" : [ 279.5, 330.5, 93.5, 330.5 ]
												}

											}
, 											{
												"patchline" : 												{
													"source" : [ "obj-5", 0 ],
													"destination" : [ "obj-2", 0 ],
													"hidden" : 0,
													"midpoints" : [  ]
												}

											}
, 											{
												"patchline" : 												{
													"source" : [ "obj-3", 0 ],
													"destination" : [ "obj-5", 0 ],
													"hidden" : 0,
													"midpoints" : [ 54.5, 234.5, 54.5, 234.5 ]
												}

											}
, 											{
												"patchline" : 												{
													"source" : [ "obj-3", 1 ],
													"destination" : [ "obj-5", 1 ],
													"hidden" : 0,
													"midpoints" : [ 80.5, 234.5, 119.166664, 234.5 ]
												}

											}
, 											{
												"patchline" : 												{
													"source" : [ "obj-2", 0 ],
													"destination" : [ "obj-17", 0 ],
													"hidden" : 0,
													"midpoints" : [  ]
												}

											}
, 											{
												"patchline" : 												{
													"source" : [ "obj-35", 0 ],
													"destination" : [ "obj-5", 2 ],
													"hidden" : 0,
													"midpoints" : [  ]
												}

											}
, 											{
												"patchline" : 												{
													"source" : [ "obj-35", 0 ],
													"destination" : [ "obj-13", 2 ],
													"hidden" : 0,
													"midpoints" : [  ]
												}

											}
, 											{
												"patchline" : 												{
													"source" : [ "obj-36", 0 ],
													"destination" : [ "obj-5", 3 ],
													"hidden" : 0,
													"midpoints" : [  ]
												}

											}
, 											{
												"patchline" : 												{
													"source" : [ "obj-36", 0 ],
													"destination" : [ "obj-13", 3 ],
													"hidden" : 0,
													"midpoints" : [  ]
												}

											}
, 											{
												"patchline" : 												{
													"source" : [ "obj-37", 0 ],
													"destination" : [ "obj-3", 0 ],
													"hidden" : 0,
													"midpoints" : [  ]
												}

											}
, 											{
												"patchline" : 												{
													"source" : [ "obj-37", 0 ],
													"destination" : [ "obj-17", 1 ],
													"hidden" : 0,
													"midpoints" : [ 54.5, 68.0, 684.5, 68.0 ]
												}

											}
, 											{
												"patchline" : 												{
													"source" : [ "obj-18", 0 ],
													"destination" : [ "obj-38", 0 ],
													"hidden" : 0,
													"midpoints" : [  ]
												}

											}
, 											{
												"patchline" : 												{
													"source" : [ "obj-3", 0 ],
													"destination" : [ "obj-39", 0 ],
													"hidden" : 0,
													"midpoints" : [  ]
												}

											}
, 											{
												"patchline" : 												{
													"source" : [ "obj-3", 1 ],
													"destination" : [ "obj-40", 0 ],
													"hidden" : 0,
													"midpoints" : [  ]
												}

											}
 ]
									}
,
									"saved_object_attributes" : 									{
										"fontface" : 0,
										"default_fontname" : "Arial",
										"fontsize" : 12.0,
										"default_fontsize" : 12.0,
										"fontname" : "Arial",
										"default_fontface" : 0,
										"globalpatchername" : ""
									}

								}

							}
, 							{
								"box" : 								{
									"maxclass" : "jit.pwindow",
									"numinlets" : 1,
									"numoutlets" : 2,
									"outlettype" : [ "", "" ],
									"patching_rect" : [ 45.0, 195.0, 256.0, 256.0 ],
									"id" : "obj-12"
								}

							}
, 							{
								"box" : 								{
									"maxclass" : "newobj",
									"text" : "loadmess -0.3",
									"numinlets" : 1,
									"fontsize" : 12.0,
									"numoutlets" : 1,
									"outlettype" : [ "" ],
									"patching_rect" : [ 450.0, 270.0, 86.0, 20.0 ],
									"id" : "obj-30",
									"fontname" : "Arial"
								}

							}
, 							{
								"box" : 								{
									"maxclass" : "newobj",
									"text" : "loadmess 0.3",
									"numinlets" : 1,
									"fontsize" : 12.0,
									"numoutlets" : 1,
									"outlettype" : [ "" ],
									"patching_rect" : [ 345.0, 270.0, 82.0, 20.0 ],
									"id" : "obj-31",
									"fontname" : "Arial"
								}

							}
, 							{
								"box" : 								{
									"maxclass" : "newobj",
									"text" : "loadmess 0.001",
									"numinlets" : 1,
									"fontsize" : 12.0,
									"numoutlets" : 1,
									"outlettype" : [ "" ],
									"patching_rect" : [ 525.0, 135.0, 95.0, 20.0 ],
									"id" : "obj-29",
									"fontname" : "Arial"
								}

							}
, 							{
								"box" : 								{
									"maxclass" : "newobj",
									"text" : "loadmess 0.1",
									"numinlets" : 1,
									"fontsize" : 12.0,
									"numoutlets" : 1,
									"outlettype" : [ "" ],
									"patching_rect" : [ 435.0, 135.0, 82.0, 20.0 ],
									"id" : "obj-28",
									"fontname" : "Arial"
								}

							}
, 							{
								"box" : 								{
									"maxclass" : "flonum",
									"numinlets" : 1,
									"fontsize" : 12.0,
									"numoutlets" : 2,
									"outlettype" : [ "float", "bang" ],
									"patching_rect" : [ 525.0, 165.0, 50.0, 20.0 ],
									"id" : "obj-25",
									"fontname" : "Arial"
								}

							}
, 							{
								"box" : 								{
									"maxclass" : "flonum",
									"numinlets" : 1,
									"fontsize" : 12.0,
									"numoutlets" : 2,
									"outlettype" : [ "float", "bang" ],
									"patching_rect" : [ 435.0, 165.0, 50.0, 20.0 ],
									"id" : "obj-26",
									"fontname" : "Arial"
								}

							}
, 							{
								"box" : 								{
									"maxclass" : "newobj",
									"text" : "pak diffusion 0. 0.",
									"numinlets" : 3,
									"fontsize" : 12.0,
									"numoutlets" : 1,
									"outlettype" : [ "" ],
									"patching_rect" : [ 450.0, 195.0, 104.0, 20.0 ],
									"id" : "obj-24",
									"fontname" : "Arial"
								}

							}
, 							{
								"box" : 								{
									"maxclass" : "comment",
									"text" : "Brusselator parameters a, b",
									"linecount" : 3,
									"numinlets" : 1,
									"fontsize" : 12.0,
									"numoutlets" : 0,
									"patching_rect" : [ 540.0, 270.0, 75.0, 48.0 ],
									"id" : "obj-23",
									"fontname" : "Arial"
								}

							}
, 							{
								"box" : 								{
									"maxclass" : "flonum",
									"numinlets" : 1,
									"fontsize" : 12.0,
									"numoutlets" : 2,
									"outlettype" : [ "float", "bang" ],
									"patching_rect" : [ 450.0, 300.0, 50.0, 20.0 ],
									"id" : "obj-22",
									"fontname" : "Arial"
								}

							}
, 							{
								"box" : 								{
									"maxclass" : "flonum",
									"numinlets" : 1,
									"fontsize" : 12.0,
									"numoutlets" : 2,
									"outlettype" : [ "float", "bang" ],
									"patching_rect" : [ 345.0, 300.0, 50.0, 20.0 ],
									"id" : "obj-21",
									"fontname" : "Arial"
								}

							}
, 							{
								"box" : 								{
									"maxclass" : "newobj",
									"text" : "jit.matrix rd",
									"numinlets" : 1,
									"fontsize" : 12.0,
									"numoutlets" : 2,
									"outlettype" : [ "jit_matrix", "" ],
									"patching_rect" : [ 315.0, 435.0, 69.0, 20.0 ],
									"id" : "obj-1",
									"fontname" : "Arial"
								}

							}
, 							{
								"box" : 								{
									"maxclass" : "comment",
									"text" : "@diffusion can specify different rates for each plane",
									"linecount" : 2,
									"numinlets" : 1,
									"fontsize" : 12.0,
									"numoutlets" : 0,
									"patching_rect" : [ 435.0, 90.0, 175.0, 34.0 ],
									"id" : "obj-10",
									"fontname" : "Arial"
								}

							}
, 							{
								"box" : 								{
									"maxclass" : "jit.pwindow",
									"numinlets" : 1,
									"numoutlets" : 2,
									"outlettype" : [ "", "" ],
									"patching_rect" : [ 480.0, 360.0, 64.0, 64.0 ],
									"id" : "obj-7"
								}

							}
, 							{
								"box" : 								{
									"maxclass" : "toggle",
									"numinlets" : 1,
									"numoutlets" : 1,
									"outlettype" : [ "int" ],
									"patching_rect" : [ 210.0, 60.0, 20.0, 20.0 ],
									"id" : "obj-9"
								}

							}
, 							{
								"box" : 								{
									"maxclass" : "comment",
									"text" : "<< feedback by matrix name",
									"numinlets" : 1,
									"fontsize" : 12.0,
									"numoutlets" : 0,
									"patching_rect" : [ 390.0, 435.0, 169.0, 20.0 ],
									"id" : "obj-11",
									"fontname" : "Arial"
								}

							}
, 							{
								"box" : 								{
									"maxclass" : "button",
									"numinlets" : 1,
									"numoutlets" : 1,
									"outlettype" : [ "bang" ],
									"patching_rect" : [ 360.0, 45.0, 58.0, 58.0 ],
									"id" : "obj-8"
								}

							}
, 							{
								"box" : 								{
									"maxclass" : "newobj",
									"text" : "loadbang",
									"numinlets" : 1,
									"fontsize" : 12.0,
									"numoutlets" : 1,
									"outlettype" : [ "bang" ],
									"patching_rect" : [ 285.0, 90.0, 60.0, 20.0 ],
									"id" : "obj-6",
									"fontname" : "Arial"
								}

							}
, 							{
								"box" : 								{
									"maxclass" : "newobj",
									"text" : "jit.noise 2 float32 64 64",
									"numinlets" : 1,
									"fontsize" : 12.0,
									"numoutlets" : 2,
									"outlettype" : [ "jit_matrix", "" ],
									"patching_rect" : [ 285.0, 120.0, 134.0, 20.0 ],
									"id" : "obj-4",
									"fontname" : "Arial"
								}

							}
, 							{
								"box" : 								{
									"maxclass" : "jit.pwindow",
									"numinlets" : 1,
									"numoutlets" : 2,
									"outlettype" : [ "", "" ],
									"patching_rect" : [ 405.0, 360.0, 64.0, 64.0 ],
									"id" : "obj-72"
								}

							}
, 							{
								"box" : 								{
									"maxclass" : "newobj",
									"text" : "qmetro 25",
									"numinlets" : 2,
									"fontsize" : 12.0,
									"numoutlets" : 1,
									"outlettype" : [ "bang" ],
									"patching_rect" : [ 210.0, 90.0, 65.0, 20.0 ],
									"id" : "obj-70",
									"fontname" : "Arial"
								}

							}
, 							{
								"box" : 								{
									"maxclass" : "newobj",
									"text" : "jit.matrix rd",
									"numinlets" : 1,
									"fontsize" : 12.0,
									"numoutlets" : 2,
									"outlettype" : [ "jit_matrix", "" ],
									"patching_rect" : [ 210.0, 150.0, 69.0, 20.0 ],
									"id" : "obj-68",
									"fontname" : "Arial"
								}

							}
, 							{
								"box" : 								{
									"maxclass" : "newobj",
									"text" : "cosm.diffuse @diffusion 0.01 0.1 @accuracy 10",
									"numinlets" : 1,
									"fontsize" : 12.0,
									"numoutlets" : 2,
									"outlettype" : [ "jit_matrix", "" ],
									"patching_rect" : [ 315.0, 225.0, 265.0, 20.0 ],
									"id" : "obj-63",
									"fontname" : "Arial"
								}

							}
 ],
						"lines" : [ 							{
								"patchline" : 								{
									"source" : [ "obj-4", 0 ],
									"destination" : [ "obj-68", 0 ],
									"hidden" : 0,
									"midpoints" : [ 294.5, 144.5, 219.5, 144.5 ]
								}

							}
, 							{
								"patchline" : 								{
									"source" : [ "obj-8", 0 ],
									"destination" : [ "obj-4", 0 ],
									"hidden" : 0,
									"midpoints" : [ 369.5, 114.5, 294.5, 114.5 ]
								}

							}
, 							{
								"patchline" : 								{
									"source" : [ "obj-6", 0 ],
									"destination" : [ "obj-4", 0 ],
									"hidden" : 0,
									"midpoints" : [  ]
								}

							}
, 							{
								"patchline" : 								{
									"source" : [ "obj-21", 0 ],
									"destination" : [ "obj-41", 1 ],
									"hidden" : 0,
									"midpoints" : [  ]
								}

							}
, 							{
								"patchline" : 								{
									"source" : [ "obj-22", 0 ],
									"destination" : [ "obj-41", 2 ],
									"hidden" : 0,
									"midpoints" : [  ]
								}

							}
, 							{
								"patchline" : 								{
									"source" : [ "obj-63", 0 ],
									"destination" : [ "obj-41", 0 ],
									"hidden" : 0,
									"midpoints" : [  ]
								}

							}
, 							{
								"patchline" : 								{
									"source" : [ "obj-41", 0 ],
									"destination" : [ "obj-1", 0 ],
									"hidden" : 0,
									"midpoints" : [  ]
								}

							}
, 							{
								"patchline" : 								{
									"source" : [ "obj-41", 1 ],
									"destination" : [ "obj-72", 0 ],
									"hidden" : 0,
									"midpoints" : [  ]
								}

							}
, 							{
								"patchline" : 								{
									"source" : [ "obj-41", 2 ],
									"destination" : [ "obj-7", 0 ],
									"hidden" : 0,
									"midpoints" : [  ]
								}

							}
, 							{
								"patchline" : 								{
									"source" : [ "obj-30", 0 ],
									"destination" : [ "obj-22", 0 ],
									"hidden" : 0,
									"midpoints" : [  ]
								}

							}
, 							{
								"patchline" : 								{
									"source" : [ "obj-31", 0 ],
									"destination" : [ "obj-21", 0 ],
									"hidden" : 0,
									"midpoints" : [  ]
								}

							}
, 							{
								"patchline" : 								{
									"source" : [ "obj-25", 0 ],
									"destination" : [ "obj-24", 2 ],
									"hidden" : 0,
									"midpoints" : [  ]
								}

							}
, 							{
								"patchline" : 								{
									"source" : [ "obj-26", 0 ],
									"destination" : [ "obj-24", 1 ],
									"hidden" : 0,
									"midpoints" : [  ]
								}

							}
, 							{
								"patchline" : 								{
									"source" : [ "obj-24", 0 ],
									"destination" : [ "obj-63", 0 ],
									"hidden" : 0,
									"midpoints" : [ 459.5, 219.5, 324.5, 219.5 ]
								}

							}
, 							{
								"patchline" : 								{
									"source" : [ "obj-68", 0 ],
									"destination" : [ "obj-63", 0 ],
									"hidden" : 0,
									"midpoints" : [ 219.5, 175.5, 324.5, 175.5 ]
								}

							}
, 							{
								"patchline" : 								{
									"source" : [ "obj-70", 0 ],
									"destination" : [ "obj-68", 0 ],
									"hidden" : 0,
									"midpoints" : [  ]
								}

							}
, 							{
								"patchline" : 								{
									"source" : [ "obj-68", 0 ],
									"destination" : [ "obj-12", 0 ],
									"hidden" : 0,
									"midpoints" : [ 219.5, 175.5, 54.5, 175.5 ]
								}

							}
, 							{
								"patchline" : 								{
									"source" : [ "obj-9", 0 ],
									"destination" : [ "obj-70", 0 ],
									"hidden" : 0,
									"midpoints" : [  ]
								}

							}
, 							{
								"patchline" : 								{
									"source" : [ "obj-29", 0 ],
									"destination" : [ "obj-25", 0 ],
									"hidden" : 0,
									"midpoints" : [  ]
								}

							}
, 							{
								"patchline" : 								{
									"source" : [ "obj-28", 0 ],
									"destination" : [ "obj-26", 0 ],
									"hidden" : 0,
									"midpoints" : [  ]
								}

							}
 ]
					}
,
					"saved_object_attributes" : 					{
						"fontface" : 0,
						"default_fontname" : "Arial",
						"fontsize" : 12.0,
						"default_fontsize" : 12.0,
						"fontname" : "Arial",
						"default_fontface" : 0,
						"globalpatchername" : ""
					}

				}

			}
, 			{
				"box" : 				{
					"maxclass" : "jit.pwindow",
					"numinlets" : 1,
					"numoutlets" : 2,
					"outlettype" : [ "", "" ],
					"patching_rect" : [ 225.0, 375.0, 64.0, 64.0 ],
					"id" : "obj-14"
				}

			}
, 			{
				"box" : 				{
					"maxclass" : "comment",
					"text" : "@diffusion can specify different rates for each plane",
					"linecount" : 2,
					"numinlets" : 1,
					"fontsize" : 12.0,
					"numoutlets" : 0,
					"patching_rect" : [ 180.0, 645.0, 169.0, 34.0 ],
					"id" : "obj-10",
					"fontname" : "Arial"
				}

			}
, 			{
				"box" : 				{
					"maxclass" : "jit.pwindow",
					"numinlets" : 1,
					"numoutlets" : 2,
					"outlettype" : [ "", "" ],
					"patching_rect" : [ 255.0, 570.0, 64.0, 64.0 ],
					"id" : "obj-7"
				}

			}
, 			{
				"box" : 				{
					"maxclass" : "newobj",
					"text" : "jit.unpack 2",
					"numinlets" : 1,
					"fontsize" : 12.0,
					"numoutlets" : 3,
					"outlettype" : [ "jit_matrix", "jit_matrix", "" ],
					"patching_rect" : [ 180.0, 525.0, 71.0, 20.0 ],
					"id" : "obj-3",
					"fontname" : "Arial"
				}

			}
, 			{
				"box" : 				{
					"maxclass" : "comment",
					"text" : "number of iterations in the internal solver (default 16)",
					"numinlets" : 1,
					"fontsize" : 12.0,
					"numoutlets" : 0,
					"patching_rect" : [ 120.0, 120.0, 401.0, 20.0 ],
					"id" : "obj-13",
					"fontname" : "Arial"
				}

			}
, 			{
				"box" : 				{
					"maxclass" : "comment",
					"text" : "@accuracy",
					"numinlets" : 1,
					"fontsize" : 12.0,
					"numoutlets" : 0,
					"patching_rect" : [ 45.0, 120.0, 72.0, 20.0 ],
					"id" : "obj-17",
					"fontname" : "Arial"
				}

			}
, 			{
				"box" : 				{
					"maxclass" : "jit.pwindow",
					"numinlets" : 1,
					"numoutlets" : 2,
					"outlettype" : [ "", "" ],
					"patching_rect" : [ 90.0, 570.0, 64.0, 64.0 ],
					"id" : "obj-12"
				}

			}
, 			{
				"box" : 				{
					"maxclass" : "toggle",
					"numinlets" : 1,
					"numoutlets" : 1,
					"outlettype" : [ "int" ],
					"patching_rect" : [ 90.0, 285.0, 20.0, 20.0 ],
					"id" : "obj-9"
				}

			}
, 			{
				"box" : 				{
					"maxclass" : "comment",
					"text" : "<< feedback by matrix name",
					"numinlets" : 1,
					"fontsize" : 12.0,
					"numoutlets" : 0,
					"patching_rect" : [ 270.0, 480.0, 169.0, 20.0 ],
					"id" : "obj-11",
					"fontname" : "Arial"
				}

			}
, 			{
				"box" : 				{
					"maxclass" : "button",
					"numinlets" : 1,
					"numoutlets" : 1,
					"outlettype" : [ "bang" ],
					"patching_rect" : [ 240.0, 240.0, 73.0, 73.0 ],
					"id" : "obj-8"
				}

			}
, 			{
				"box" : 				{
					"maxclass" : "newobj",
					"text" : "loadbang",
					"numinlets" : 1,
					"fontsize" : 12.0,
					"numoutlets" : 1,
					"outlettype" : [ "bang" ],
					"patching_rect" : [ 165.0, 300.0, 60.0, 20.0 ],
					"id" : "obj-6",
					"fontname" : "Arial"
				}

			}
, 			{
				"box" : 				{
					"maxclass" : "newobj",
					"text" : "jit.noise 2 float32 16 16",
					"numinlets" : 1,
					"fontsize" : 12.0,
					"numoutlets" : 2,
					"outlettype" : [ "jit_matrix", "" ],
					"patching_rect" : [ 165.0, 330.0, 134.0, 20.0 ],
					"id" : "obj-4",
					"fontname" : "Arial"
				}

			}
, 			{
				"box" : 				{
					"maxclass" : "jit.pwindow",
					"numinlets" : 1,
					"numoutlets" : 2,
					"outlettype" : [ "", "" ],
					"patching_rect" : [ 180.0, 570.0, 64.0, 64.0 ],
					"id" : "obj-72"
				}

			}
, 			{
				"box" : 				{
					"maxclass" : "newobj",
					"text" : "qmetro 25",
					"numinlets" : 2,
					"fontsize" : 12.0,
					"numoutlets" : 1,
					"outlettype" : [ "bang" ],
					"patching_rect" : [ 90.0, 315.0, 65.0, 20.0 ],
					"id" : "obj-70",
					"fontname" : "Arial"
				}

			}
, 			{
				"box" : 				{
					"maxclass" : "newobj",
					"text" : "jit.matrix field",
					"numinlets" : 1,
					"fontsize" : 12.0,
					"numoutlets" : 2,
					"outlettype" : [ "jit_matrix", "" ],
					"patching_rect" : [ 90.0, 390.0, 81.0, 20.0 ],
					"id" : "obj-68",
					"fontname" : "Arial"
				}

			}
, 			{
				"box" : 				{
					"maxclass" : "newobj",
					"text" : "jit.matrix field",
					"numinlets" : 1,
					"fontsize" : 12.0,
					"numoutlets" : 2,
					"outlettype" : [ "jit_matrix", "" ],
					"patching_rect" : [ 180.0, 480.0, 81.0, 20.0 ],
					"id" : "obj-66",
					"fontname" : "Arial"
				}

			}
, 			{
				"box" : 				{
					"maxclass" : "newobj",
					"text" : "cosm.diffuse @diffusion 0.1 0.01 @accuracy 10",
					"numinlets" : 1,
					"fontsize" : 12.0,
					"numoutlets" : 2,
					"outlettype" : [ "jit_matrix", "" ],
					"patching_rect" : [ 180.0, 450.0, 272.0, 20.0 ],
					"id" : "obj-63",
					"fontname" : "Arial"
				}

			}
, 			{
				"box" : 				{
					"maxclass" : "comment",
					"text" : "matching input",
					"numinlets" : 1,
					"fontsize" : 12.0,
					"numoutlets" : 0,
					"patching_rect" : [ 120.0, 210.0, 401.0, 20.0 ],
					"id" : "obj-57",
					"fontname" : "Arial"
				}

			}
, 			{
				"box" : 				{
					"maxclass" : "comment",
					"text" : "field",
					"numinlets" : 1,
					"fontsize" : 12.0,
					"numoutlets" : 0,
					"patching_rect" : [ 45.0, 210.0, 72.0, 20.0 ],
					"id" : "obj-59",
					"fontname" : "Arial"
				}

			}
, 			{
				"box" : 				{
					"maxclass" : "comment",
					"text" : "outputs",
					"numinlets" : 1,
					"fontsize" : 12.0,
					"numoutlets" : 0,
					"patching_rect" : [ 30.0, 195.0, 72.0, 20.0 ],
					"id" : "obj-60",
					"fontname" : "Arial"
				}

			}
, 			{
				"box" : 				{
					"maxclass" : "comment",
					"text" : "n-plane, float32, 2D or 3D",
					"numinlets" : 1,
					"fontsize" : 12.0,
					"numoutlets" : 0,
					"patching_rect" : [ 120.0, 165.0, 401.0, 20.0 ],
					"id" : "obj-42",
					"fontname" : "Arial"
				}

			}
, 			{
				"box" : 				{
					"maxclass" : "comment",
					"text" : "field",
					"numinlets" : 1,
					"fontsize" : 12.0,
					"numoutlets" : 0,
					"patching_rect" : [ 45.0, 165.0, 72.0, 20.0 ],
					"id" : "obj-45",
					"fontname" : "Arial"
				}

			}
, 			{
				"box" : 				{
					"maxclass" : "comment",
					"text" : "inputs",
					"numinlets" : 1,
					"fontsize" : 12.0,
					"numoutlets" : 0,
					"patching_rect" : [ 30.0, 150.0, 72.0, 20.0 ],
					"id" : "obj-46",
					"fontname" : "Arial"
				}

			}
, 			{
				"box" : 				{
					"maxclass" : "comment",
					"text" : "rate of diffusion of densities (default 0.001)",
					"numinlets" : 1,
					"fontsize" : 12.0,
					"numoutlets" : 0,
					"patching_rect" : [ 120.0, 105.0, 401.0, 20.0 ],
					"id" : "obj-37",
					"fontname" : "Arial"
				}

			}
, 			{
				"box" : 				{
					"maxclass" : "comment",
					"text" : "@diffusion",
					"numinlets" : 1,
					"fontsize" : 12.0,
					"numoutlets" : 0,
					"patching_rect" : [ 45.0, 105.0, 72.0, 20.0 ],
					"id" : "obj-32",
					"fontname" : "Arial"
				}

			}
, 			{
				"box" : 				{
					"maxclass" : "comment",
					"text" : "attributes:",
					"numinlets" : 1,
					"fontsize" : 12.0,
					"numoutlets" : 0,
					"patching_rect" : [ 30.0, 90.0, 72.0, 20.0 ],
					"id" : "obj-30",
					"fontname" : "Arial"
				}

			}
, 			{
				"box" : 				{
					"maxclass" : "comment",
					"varname" : "autohelp_top_title",
					"text" : "cosm.diffuse",
					"numinlets" : 1,
					"fontface" : 3,
					"frgb" : [ 0.93, 0.93, 0.97, 1.0 ],
					"fontsize" : 20.871338,
					"numoutlets" : 0,
					"patching_rect" : [ 15.0, 15.0, 395.0, 30.0 ],
					"id" : "obj-1",
					"fontname" : "Arial",
					"textcolor" : [ 0.93, 0.93, 0.97, 1.0 ]
				}

			}
, 			{
				"box" : 				{
					"maxclass" : "comment",
					"varname" : "autohelp_top_digest",
					"text" : "2D/3D diffusion (by Gauss-Seidel relaxation) - let a field spread itself out...",
					"numinlets" : 1,
					"frgb" : [ 0.93, 0.93, 0.97, 1.0 ],
					"fontsize" : 12.754705,
					"numoutlets" : 0,
					"patching_rect" : [ 15.0, 43.0, 485.0, 21.0 ],
					"id" : "obj-2",
					"fontname" : "Arial",
					"textcolor" : [ 0.93, 0.93, 0.97, 1.0 ]
				}

			}
, 			{
				"box" : 				{
					"maxclass" : "panel",
					"varname" : "autohelp_top_panel",
					"numinlets" : 1,
					"mode" : 1,
					"numoutlets" : 0,
					"background" : 1,
					"patching_rect" : [ 15.0, 15.0, 495.0, 52.0 ],
					"grad1" : [ 0.27, 0.35, 0.47, 1.0 ],
					"id" : "obj-5",
					"grad2" : [ 0.85, 0.85, 0.85, 1.0 ]
				}

			}
 ],
		"lines" : [ 			{
				"patchline" : 				{
					"source" : [ "obj-70", 0 ],
					"destination" : [ "obj-68", 0 ],
					"hidden" : 0,
					"midpoints" : [  ]
				}

			}
, 			{
				"patchline" : 				{
					"source" : [ "obj-9", 0 ],
					"destination" : [ "obj-70", 0 ],
					"hidden" : 0,
					"midpoints" : [  ]
				}

			}
, 			{
				"patchline" : 				{
					"source" : [ "obj-68", 0 ],
					"destination" : [ "obj-12", 0 ],
					"hidden" : 0,
					"midpoints" : [ 99.5, 414.5, 99.5, 414.5 ]
				}

			}
, 			{
				"patchline" : 				{
					"source" : [ "obj-4", 0 ],
					"destination" : [ "obj-68", 0 ],
					"hidden" : 0,
					"midpoints" : [ 174.5, 377.0, 99.5, 377.0 ]
				}

			}
, 			{
				"patchline" : 				{
					"source" : [ "obj-8", 0 ],
					"destination" : [ "obj-4", 0 ],
					"hidden" : 0,
					"midpoints" : [ 249.5, 324.5, 174.5, 324.5 ]
				}

			}
, 			{
				"patchline" : 				{
					"source" : [ "obj-6", 0 ],
					"destination" : [ "obj-4", 0 ],
					"hidden" : 0,
					"midpoints" : [  ]
				}

			}
, 			{
				"patchline" : 				{
					"source" : [ "obj-66", 0 ],
					"destination" : [ "obj-3", 0 ],
					"hidden" : 0,
					"midpoints" : [  ]
				}

			}
, 			{
				"patchline" : 				{
					"source" : [ "obj-3", 0 ],
					"destination" : [ "obj-72", 0 ],
					"hidden" : 0,
					"midpoints" : [  ]
				}

			}
, 			{
				"patchline" : 				{
					"source" : [ "obj-3", 1 ],
					"destination" : [ "obj-7", 0 ],
					"hidden" : 0,
					"midpoints" : [ 215.5, 557.0, 264.5, 557.0 ]
				}

			}
, 			{
				"patchline" : 				{
					"source" : [ "obj-68", 0 ],
					"destination" : [ "obj-63", 0 ],
					"hidden" : 0,
					"midpoints" : [ 99.5, 429.5, 189.5, 429.5 ]
				}

			}
, 			{
				"patchline" : 				{
					"source" : [ "obj-63", 0 ],
					"destination" : [ "obj-66", 0 ],
					"hidden" : 0,
					"midpoints" : [  ]
				}

			}
, 			{
				"patchline" : 				{
					"source" : [ "obj-4", 0 ],
					"destination" : [ "obj-14", 0 ],
					"hidden" : 0,
					"midpoints" : [ 174.5, 362.0, 234.5, 362.0 ]
				}

			}
 ]
	}

}
