{
	"patcher" : 	{
		"fileversion" : 1,
		"rect" : [ 293.0, 246.0, 666.0, 518.0 ],
		"bglocked" : 0,
		"defrect" : [ 293.0, 246.0, 666.0, 518.0 ],
		"openrect" : [ 0.0, 0.0, 0.0, 0.0 ],
		"openinpresentation" : 0,
		"default_fontsize" : 12.0,
		"default_fontface" : 0,
		"default_fontname" : "Arial",
		"gridonopen" : 0,
		"gridsize" : [ 15.0, 15.0 ],
		"gridsnaponopen" : 0,
		"toolbarvisible" : 1,
		"boxanimatetime" : 200,
		"imprint" : 0,
		"enablehscroll" : 1,
		"enablevscroll" : 1,
		"devicewidth" : 0.0,
		"boxes" : [ 			{
				"box" : 				{
					"maxclass" : "newobj",
					"text" : "!/ 1.",
					"patching_rect" : [ 135.0, 240.0, 32.5, 20.0 ],
					"outlettype" : [ "float" ],
					"id" : "obj-29",
					"fontname" : "Arial",
					"fontsize" : 12.0,
					"numinlets" : 2,
					"numoutlets" : 1
				}

			}
, 			{
				"box" : 				{
					"maxclass" : "newobj",
					"text" : "r step",
					"patching_rect" : [ 285.0, 90.0, 41.0, 20.0 ],
					"outlettype" : [ "" ],
					"id" : "obj-28",
					"fontname" : "Arial",
					"fontsize" : 12.0,
					"numinlets" : 0,
					"presentation_rect" : [ 283.0, 88.0, 0.0, 0.0 ],
					"numoutlets" : 1
				}

			}
, 			{
				"box" : 				{
					"maxclass" : "newobj",
					"text" : "route lens_angle",
					"patching_rect" : [ 330.0, 180.0, 99.0, 20.0 ],
					"outlettype" : [ "", "" ],
					"id" : "obj-70",
					"fontname" : "Arial",
					"fontsize" : 12.0,
					"numinlets" : 1,
					"numoutlets" : 2
				}

			}
, 			{
				"box" : 				{
					"maxclass" : "message",
					"text" : "camera lens_angle",
					"patching_rect" : [ 330.0, 120.0, 112.0, 18.0 ],
					"outlettype" : [ "" ],
					"id" : "obj-68",
					"fontname" : "Arial",
					"fontsize" : 12.0,
					"numinlets" : 2,
					"numoutlets" : 1
				}

			}
, 			{
				"box" : 				{
					"maxclass" : "newobj",
					"text" : "cosm.query",
					"patching_rect" : [ 330.0, 150.0, 73.0, 20.0 ],
					"outlettype" : [ "", "" ],
					"id" : "obj-69",
					"fontname" : "Arial",
					"fontsize" : 12.0,
					"numinlets" : 1,
					"numoutlets" : 2
				}

			}
, 			{
				"box" : 				{
					"maxclass" : "newobj",
					"text" : "loadbang",
					"patching_rect" : [ 330.0, 90.0, 60.0, 20.0 ],
					"outlettype" : [ "bang" ],
					"id" : "obj-26",
					"fontname" : "Arial",
					"fontsize" : 12.0,
					"numinlets" : 1,
					"numoutlets" : 1
				}

			}
, 			{
				"box" : 				{
					"maxclass" : "comment",
					"text" : "lens angle",
					"patching_rect" : [ 390.0, 210.0, 79.0, 20.0 ],
					"id" : "obj-25",
					"fontname" : "Arial",
					"fontsize" : 12.0,
					"numinlets" : 1,
					"presentation_rect" : [ 391.0, 203.0, 0.0, 0.0 ],
					"numoutlets" : 0
				}

			}
, 			{
				"box" : 				{
					"maxclass" : "newobj",
					"text" : "loadmess 1.4",
					"patching_rect" : [ 135.0, 180.0, 82.0, 20.0 ],
					"outlettype" : [ "" ],
					"id" : "obj-24",
					"fontname" : "Arial",
					"fontsize" : 12.0,
					"numinlets" : 1,
					"numoutlets" : 1
				}

			}
, 			{
				"box" : 				{
					"maxclass" : "newobj",
					"text" : "p lens2depth",
					"patching_rect" : [ 330.0, 240.0, 79.0, 20.0 ],
					"outlettype" : [ "float" ],
					"id" : "obj-23",
					"fontname" : "Arial",
					"fontsize" : 12.0,
					"numinlets" : 1,
					"numoutlets" : 1,
					"patcher" : 					{
						"fileversion" : 1,
						"rect" : [ 25.0, 69.0, 640.0, 480.0 ],
						"bglocked" : 0,
						"defrect" : [ 25.0, 69.0, 640.0, 480.0 ],
						"openrect" : [ 0.0, 0.0, 0.0, 0.0 ],
						"openinpresentation" : 0,
						"default_fontsize" : 12.0,
						"default_fontface" : 0,
						"default_fontname" : "Arial",
						"gridonopen" : 0,
						"gridsize" : [ 15.0, 15.0 ],
						"gridsnaponopen" : 0,
						"toolbarvisible" : 1,
						"boxanimatetime" : 200,
						"imprint" : 0,
						"enablehscroll" : 1,
						"enablevscroll" : 1,
						"devicewidth" : 0.0,
						"boxes" : [ 							{
								"box" : 								{
									"maxclass" : "comment",
									"text" : "half angle",
									"patching_rect" : [ 90.0, 105.0, 150.0, 20.0 ],
									"id" : "obj-7",
									"fontname" : "Arial",
									"fontsize" : 12.0,
									"numinlets" : 1,
									"presentation_rect" : [ 97.0, 106.0, 0.0, 0.0 ],
									"numoutlets" : 0
								}

							}
, 							{
								"box" : 								{
									"maxclass" : "newobj",
									"text" : "* 0.5",
									"patching_rect" : [ 45.0, 105.0, 35.0, 20.0 ],
									"outlettype" : [ "float" ],
									"id" : "obj-6",
									"fontname" : "Arial",
									"fontsize" : 12.0,
									"numinlets" : 2,
									"numoutlets" : 1
								}

							}
, 							{
								"box" : 								{
									"maxclass" : "comment",
									"text" : "z scale for given lens angle",
									"linecount" : 2,
									"patching_rect" : [ 345.0, 75.0, 150.0, 34.0 ],
									"id" : "obj-5",
									"fontname" : "Arial",
									"fontsize" : 12.0,
									"numinlets" : 1,
									"presentation_rect" : [ 346.0, 71.0, 0.0, 0.0 ],
									"numoutlets" : 0
								}

							}
, 							{
								"box" : 								{
									"maxclass" : "comment",
									"text" : "deg2rad",
									"patching_rect" : [ 120.0, 135.0, 150.0, 20.0 ],
									"id" : "obj-3",
									"fontname" : "Arial",
									"fontsize" : 12.0,
									"numinlets" : 1,
									"numoutlets" : 0
								}

							}
, 							{
								"box" : 								{
									"maxclass" : "newobj",
									"text" : "* 0.017453",
									"patching_rect" : [ 45.0, 135.0, 69.0, 20.0 ],
									"outlettype" : [ "float" ],
									"id" : "obj-1",
									"fontname" : "Arial",
									"fontsize" : 12.0,
									"numinlets" : 2,
									"numoutlets" : 1
								}

							}
, 							{
								"box" : 								{
									"maxclass" : "newobj",
									"text" : "tan",
									"patching_rect" : [ 45.0, 165.0, 27.0, 20.0 ],
									"outlettype" : [ "float" ],
									"id" : "obj-13",
									"fontname" : "Arial",
									"fontsize" : 12.0,
									"numinlets" : 1,
									"numoutlets" : 1
								}

							}
, 							{
								"box" : 								{
									"maxclass" : "inlet",
									"patching_rect" : [ 45.0, 60.0, 25.0, 25.0 ],
									"outlettype" : [ "float" ],
									"id" : "obj-20",
									"numinlets" : 0,
									"numoutlets" : 1,
									"comment" : ""
								}

							}
, 							{
								"box" : 								{
									"maxclass" : "outlet",
									"patching_rect" : [ 45.0, 195.0, 25.0, 25.0 ],
									"id" : "obj-22",
									"numinlets" : 1,
									"numoutlets" : 0,
									"comment" : ""
								}

							}
 ],
						"lines" : [ 							{
								"patchline" : 								{
									"source" : [ "obj-20", 0 ],
									"destination" : [ "obj-6", 0 ],
									"hidden" : 0,
									"midpoints" : [  ]
								}

							}
, 							{
								"patchline" : 								{
									"source" : [ "obj-6", 0 ],
									"destination" : [ "obj-1", 0 ],
									"hidden" : 0,
									"midpoints" : [  ]
								}

							}
, 							{
								"patchline" : 								{
									"source" : [ "obj-1", 0 ],
									"destination" : [ "obj-13", 0 ],
									"hidden" : 0,
									"midpoints" : [  ]
								}

							}
, 							{
								"patchline" : 								{
									"source" : [ "obj-13", 0 ],
									"destination" : [ "obj-22", 0 ],
									"hidden" : 0,
									"midpoints" : [  ]
								}

							}
 ]
					}
,
					"saved_object_attributes" : 					{
						"fontname" : "Arial",
						"default_fontsize" : 12.0,
						"globalpatchername" : "",
						"fontface" : 0,
						"fontsize" : 12.0,
						"default_fontface" : 0,
						"default_fontname" : "Arial"
					}

				}

			}
, 			{
				"box" : 				{
					"maxclass" : "comment",
					"text" : "aspectratio",
					"patching_rect" : [ 195.0, 210.0, 79.0, 20.0 ],
					"id" : "obj-12",
					"fontname" : "Arial",
					"fontsize" : 12.0,
					"numinlets" : 1,
					"presentation_rect" : [ 254.0, 193.0, 0.0, 0.0 ],
					"numoutlets" : 0
				}

			}
, 			{
				"box" : 				{
					"maxclass" : "flonum",
					"patching_rect" : [ 330.0, 210.0, 50.0, 20.0 ],
					"outlettype" : [ "float", "bang" ],
					"id" : "obj-10",
					"fontname" : "Arial",
					"fontsize" : 12.0,
					"numinlets" : 1,
					"presentation_rect" : [ 150.0, 173.0, 0.0, 0.0 ],
					"numoutlets" : 2
				}

			}
, 			{
				"box" : 				{
					"maxclass" : "newobj",
					"text" : "p random color",
					"patching_rect" : [ 150.0, 435.0, 91.0, 20.0 ],
					"outlettype" : [ "" ],
					"id" : "obj-9",
					"fontname" : "Arial",
					"fontsize" : 12.0,
					"numinlets" : 0,
					"presentation_rect" : [ 92.0, 418.0, 0.0, 0.0 ],
					"numoutlets" : 1,
					"patcher" : 					{
						"fileversion" : 1,
						"rect" : [ 50.0, 94.0, 640.0, 480.0 ],
						"bglocked" : 0,
						"defrect" : [ 50.0, 94.0, 640.0, 480.0 ],
						"openrect" : [ 0.0, 0.0, 0.0, 0.0 ],
						"openinpresentation" : 0,
						"default_fontsize" : 12.0,
						"default_fontface" : 0,
						"default_fontname" : "Arial",
						"gridonopen" : 0,
						"gridsize" : [ 15.0, 15.0 ],
						"gridsnaponopen" : 0,
						"toolbarvisible" : 1,
						"boxanimatetime" : 200,
						"imprint" : 0,
						"enablehscroll" : 1,
						"enablevscroll" : 1,
						"devicewidth" : 0.0,
						"boxes" : [ 							{
								"box" : 								{
									"maxclass" : "newobj",
									"text" : "loadbang",
									"patching_rect" : [ 90.0, 60.0, 60.0, 20.0 ],
									"outlettype" : [ "bang" ],
									"id" : "obj-1",
									"fontname" : "Arial",
									"fontsize" : 12.0,
									"numinlets" : 1,
									"numoutlets" : 1
								}

							}
, 							{
								"box" : 								{
									"maxclass" : "newobj",
									"text" : "random 100",
									"patching_rect" : [ 240.0, 135.0, 75.0, 20.0 ],
									"outlettype" : [ "int" ],
									"id" : "obj-17",
									"fontname" : "Arial",
									"fontsize" : 12.0,
									"numinlets" : 2,
									"numoutlets" : 1
								}

							}
, 							{
								"box" : 								{
									"maxclass" : "newobj",
									"text" : "random 100",
									"patching_rect" : [ 165.0, 135.0, 75.0, 20.0 ],
									"outlettype" : [ "int" ],
									"id" : "obj-16",
									"fontname" : "Arial",
									"fontsize" : 12.0,
									"numinlets" : 2,
									"numoutlets" : 1
								}

							}
, 							{
								"box" : 								{
									"maxclass" : "newobj",
									"text" : "random 100",
									"patching_rect" : [ 90.0, 135.0, 75.0, 20.0 ],
									"outlettype" : [ "int" ],
									"id" : "obj-15",
									"fontname" : "Arial",
									"fontsize" : 12.0,
									"numinlets" : 2,
									"numoutlets" : 1
								}

							}
, 							{
								"box" : 								{
									"maxclass" : "button",
									"patching_rect" : [ 90.0, 90.0, 20.0, 20.0 ],
									"outlettype" : [ "bang" ],
									"id" : "obj-9",
									"numinlets" : 1,
									"numoutlets" : 1
								}

							}
, 							{
								"box" : 								{
									"maxclass" : "newobj",
									"text" : "vexpr 0.01*($f1)",
									"patching_rect" : [ 90.0, 195.0, 96.0, 20.0 ],
									"outlettype" : [ "" ],
									"id" : "obj-12",
									"fontname" : "Arial",
									"fontsize" : 12.0,
									"numinlets" : 1,
									"numoutlets" : 1
								}

							}
, 							{
								"box" : 								{
									"maxclass" : "newobj",
									"text" : "pack 0. 0. 0.",
									"patching_rect" : [ 90.0, 165.0, 76.0, 20.0 ],
									"outlettype" : [ "" ],
									"id" : "obj-11",
									"fontname" : "Arial",
									"fontsize" : 12.0,
									"numinlets" : 3,
									"numoutlets" : 1
								}

							}
, 							{
								"box" : 								{
									"maxclass" : "newobj",
									"text" : "prepend color",
									"patching_rect" : [ 90.0, 225.0, 84.0, 20.0 ],
									"outlettype" : [ "" ],
									"id" : "obj-8",
									"fontname" : "Arial",
									"fontsize" : 12.0,
									"numinlets" : 1,
									"numoutlets" : 1
								}

							}
, 							{
								"box" : 								{
									"maxclass" : "outlet",
									"patching_rect" : [ 90.0, 270.0, 25.0, 25.0 ],
									"id" : "obj-14",
									"numinlets" : 1,
									"numoutlets" : 0,
									"comment" : ""
								}

							}
 ],
						"lines" : [ 							{
								"patchline" : 								{
									"source" : [ "obj-1", 0 ],
									"destination" : [ "obj-9", 0 ],
									"hidden" : 0,
									"midpoints" : [  ]
								}

							}
, 							{
								"patchline" : 								{
									"source" : [ "obj-11", 0 ],
									"destination" : [ "obj-12", 0 ],
									"hidden" : 0,
									"midpoints" : [  ]
								}

							}
, 							{
								"patchline" : 								{
									"source" : [ "obj-12", 0 ],
									"destination" : [ "obj-8", 0 ],
									"hidden" : 0,
									"midpoints" : [  ]
								}

							}
, 							{
								"patchline" : 								{
									"source" : [ "obj-8", 0 ],
									"destination" : [ "obj-14", 0 ],
									"hidden" : 0,
									"midpoints" : [  ]
								}

							}
, 							{
								"patchline" : 								{
									"source" : [ "obj-15", 0 ],
									"destination" : [ "obj-11", 0 ],
									"hidden" : 0,
									"midpoints" : [  ]
								}

							}
, 							{
								"patchline" : 								{
									"source" : [ "obj-16", 0 ],
									"destination" : [ "obj-11", 1 ],
									"hidden" : 0,
									"midpoints" : [  ]
								}

							}
, 							{
								"patchline" : 								{
									"source" : [ "obj-17", 0 ],
									"destination" : [ "obj-11", 2 ],
									"hidden" : 0,
									"midpoints" : [  ]
								}

							}
, 							{
								"patchline" : 								{
									"source" : [ "obj-9", 0 ],
									"destination" : [ "obj-15", 0 ],
									"hidden" : 0,
									"midpoints" : [  ]
								}

							}
, 							{
								"patchline" : 								{
									"source" : [ "obj-9", 0 ],
									"destination" : [ "obj-16", 0 ],
									"hidden" : 0,
									"midpoints" : [  ]
								}

							}
, 							{
								"patchline" : 								{
									"source" : [ "obj-9", 0 ],
									"destination" : [ "obj-17", 0 ],
									"hidden" : 0,
									"midpoints" : [  ]
								}

							}
 ]
					}
,
					"saved_object_attributes" : 					{
						"fontname" : "Arial",
						"default_fontsize" : 12.0,
						"globalpatchername" : "",
						"fontface" : 0,
						"fontsize" : 12.0,
						"default_fontface" : 0,
						"default_fontname" : "Arial"
					}

				}

			}
, 			{
				"box" : 				{
					"maxclass" : "newobj",
					"text" : "loadbang",
					"patching_rect" : [ 150.0, 345.0, 60.0, 20.0 ],
					"outlettype" : [ "bang" ],
					"id" : "obj-46",
					"fontname" : "Arial",
					"fontsize" : 12.0,
					"numinlets" : 1,
					"numoutlets" : 1
				}

			}
, 			{
				"box" : 				{
					"maxclass" : "newobj",
					"text" : "pak scale 1. 1. 1.",
					"patching_rect" : [ 150.0, 300.0, 108.0, 20.0 ],
					"outlettype" : [ "" ],
					"id" : "obj-41",
					"fontname" : "Arial",
					"fontsize" : 12.0,
					"numinlets" : 4,
					"numoutlets" : 1
				}

			}
, 			{
				"box" : 				{
					"maxclass" : "flonum",
					"patching_rect" : [ 330.0, 270.0, 132.0, 20.0 ],
					"outlettype" : [ "float", "bang" ],
					"id" : "obj-30",
					"fontname" : "Arial",
					"fontsize" : 12.0,
					"numinlets" : 1,
					"numoutlets" : 2
				}

			}
, 			{
				"box" : 				{
					"maxclass" : "message",
					"text" : "reset, linesegment 0 0 -1 1 1 1, linesegment 0 0 -1 1 -1 1, linesegment 0 0 -1 -1 -1 1, linesegment 0 0 -1 -1 1 1, framequad 1 1 1 1 -1 1 -1 -1 1 -1 1 1, framequad 0.5 0.5 0 0.5 -0.5 0 -0.5 -0.5 0 -0.5 0.5 0",
					"linecount" : 3,
					"patching_rect" : [ 150.0, 375.0, 481.0, 46.0 ],
					"outlettype" : [ "" ],
					"id" : "obj-27",
					"fontname" : "Arial",
					"fontsize" : 12.0,
					"numinlets" : 2,
					"numoutlets" : 1
				}

			}
, 			{
				"box" : 				{
					"maxclass" : "flonum",
					"patching_rect" : [ 135.0, 210.0, 50.0, 20.0 ],
					"outlettype" : [ "float", "bang" ],
					"id" : "obj-21",
					"fontname" : "Arial",
					"fontsize" : 12.0,
					"numinlets" : 1,
					"numoutlets" : 2
				}

			}
, 			{
				"box" : 				{
					"maxclass" : "comment",
					"text" : "schematic of viewport",
					"patching_rect" : [ 225.0, 345.0, 150.0, 20.0 ],
					"id" : "obj-18",
					"fontname" : "Arial",
					"fontsize" : 12.0,
					"numinlets" : 1,
					"numoutlets" : 0
				}

			}
, 			{
				"box" : 				{
					"maxclass" : "newobj",
					"text" : "jit.gl.sketch cosm @color 1 1 1 1 @scale 1.4 1 1",
					"patching_rect" : [ 30.0, 465.0, 267.0, 20.0 ],
					"outlettype" : [ "", "" ],
					"id" : "obj-7",
					"fontname" : "Arial",
					"fontsize" : 12.0,
					"numinlets" : 1,
					"numoutlets" : 2
				}

			}
, 			{
				"box" : 				{
					"maxclass" : "newobj",
					"text" : "p random movement",
					"patching_rect" : [ 75.0, 90.0, 121.0, 20.0 ],
					"outlettype" : [ "" ],
					"id" : "obj-15",
					"fontname" : "Arial",
					"fontsize" : 12.0,
					"numinlets" : 1,
					"numoutlets" : 1,
					"patcher" : 					{
						"fileversion" : 1,
						"rect" : [ 50.0, 94.0, 640.0, 480.0 ],
						"bglocked" : 0,
						"defrect" : [ 50.0, 94.0, 640.0, 480.0 ],
						"openrect" : [ 0.0, 0.0, 0.0, 0.0 ],
						"openinpresentation" : 0,
						"default_fontsize" : 12.0,
						"default_fontface" : 0,
						"default_fontname" : "Arial",
						"gridonopen" : 0,
						"gridsize" : [ 15.0, 15.0 ],
						"gridsnaponopen" : 0,
						"toolbarvisible" : 1,
						"boxanimatetime" : 200,
						"imprint" : 0,
						"enablehscroll" : 1,
						"enablevscroll" : 1,
						"devicewidth" : 0.0,
						"boxes" : [ 							{
								"box" : 								{
									"maxclass" : "newobj",
									"text" : "random 100",
									"patching_rect" : [ 375.0, 135.0, 75.0, 20.0 ],
									"outlettype" : [ "int" ],
									"id" : "obj-17",
									"fontname" : "Arial",
									"fontsize" : 12.0,
									"numinlets" : 2,
									"numoutlets" : 1
								}

							}
, 							{
								"box" : 								{
									"maxclass" : "newobj",
									"text" : "random 100",
									"patching_rect" : [ 300.0, 135.0, 75.0, 20.0 ],
									"outlettype" : [ "int" ],
									"id" : "obj-16",
									"fontname" : "Arial",
									"fontsize" : 12.0,
									"numinlets" : 2,
									"numoutlets" : 1
								}

							}
, 							{
								"box" : 								{
									"maxclass" : "newobj",
									"text" : "random 100",
									"patching_rect" : [ 225.0, 135.0, 75.0, 20.0 ],
									"outlettype" : [ "int" ],
									"id" : "obj-15",
									"fontname" : "Arial",
									"fontsize" : 12.0,
									"numinlets" : 2,
									"numoutlets" : 1
								}

							}
, 							{
								"box" : 								{
									"maxclass" : "button",
									"patching_rect" : [ 90.0, 90.0, 20.0, 20.0 ],
									"outlettype" : [ "bang" ],
									"id" : "obj-9",
									"numinlets" : 1,
									"numoutlets" : 1
								}

							}
, 							{
								"box" : 								{
									"maxclass" : "newobj",
									"text" : "+ 500",
									"patching_rect" : [ 495.0, 165.0, 41.0, 20.0 ],
									"outlettype" : [ "int" ],
									"id" : "obj-6",
									"fontname" : "Arial",
									"fontsize" : 12.0,
									"numinlets" : 2,
									"numoutlets" : 1
								}

							}
, 							{
								"box" : 								{
									"maxclass" : "newobj",
									"text" : "random 5000",
									"patching_rect" : [ 495.0, 135.0, 81.0, 20.0 ],
									"outlettype" : [ "int" ],
									"id" : "obj-5",
									"fontname" : "Arial",
									"fontsize" : 12.0,
									"numinlets" : 2,
									"numoutlets" : 1
								}

							}
, 							{
								"box" : 								{
									"maxclass" : "newobj",
									"text" : "delay",
									"patching_rect" : [ 495.0, 195.0, 39.0, 20.0 ],
									"outlettype" : [ "bang" ],
									"id" : "obj-4",
									"fontname" : "Arial",
									"fontsize" : 12.0,
									"numinlets" : 2,
									"numoutlets" : 1
								}

							}
, 							{
								"box" : 								{
									"maxclass" : "newobj",
									"text" : "* 0.001",
									"patching_rect" : [ 90.0, 195.0, 49.0, 20.0 ],
									"outlettype" : [ "float" ],
									"id" : "obj-2",
									"fontname" : "Arial",
									"fontsize" : 12.0,
									"numinlets" : 2,
									"numoutlets" : 1
								}

							}
, 							{
								"box" : 								{
									"maxclass" : "newobj",
									"text" : "random 100",
									"patching_rect" : [ 90.0, 165.0, 75.0, 20.0 ],
									"outlettype" : [ "int" ],
									"id" : "obj-3",
									"fontname" : "Arial",
									"fontsize" : 12.0,
									"numinlets" : 2,
									"numoutlets" : 1
								}

							}
, 							{
								"box" : 								{
									"maxclass" : "newobj",
									"text" : "vexpr 0.02*($f1-50.)",
									"patching_rect" : [ 225.0, 195.0, 117.0, 20.0 ],
									"outlettype" : [ "" ],
									"id" : "obj-12",
									"fontname" : "Arial",
									"fontsize" : 12.0,
									"numinlets" : 1,
									"numoutlets" : 1
								}

							}
, 							{
								"box" : 								{
									"maxclass" : "newobj",
									"text" : "pack 0. 0. 0.",
									"patching_rect" : [ 225.0, 165.0, 76.0, 20.0 ],
									"outlettype" : [ "" ],
									"id" : "obj-11",
									"fontname" : "Arial",
									"fontsize" : 12.0,
									"numinlets" : 3,
									"numoutlets" : 1
								}

							}
, 							{
								"box" : 								{
									"maxclass" : "message",
									"text" : "move 0 0 $1",
									"patching_rect" : [ 90.0, 225.0, 77.0, 18.0 ],
									"outlettype" : [ "" ],
									"id" : "obj-10",
									"fontname" : "Arial",
									"fontsize" : 12.0,
									"numinlets" : 2,
									"numoutlets" : 1
								}

							}
, 							{
								"box" : 								{
									"maxclass" : "newobj",
									"text" : "prepend turn",
									"patching_rect" : [ 225.0, 225.0, 79.0, 20.0 ],
									"outlettype" : [ "" ],
									"id" : "obj-8",
									"fontname" : "Arial",
									"fontsize" : 12.0,
									"numinlets" : 1,
									"numoutlets" : 1
								}

							}
, 							{
								"box" : 								{
									"maxclass" : "inlet",
									"patching_rect" : [ 90.0, 30.0, 25.0, 25.0 ],
									"outlettype" : [ "bang" ],
									"id" : "obj-13",
									"numinlets" : 0,
									"numoutlets" : 1,
									"comment" : ""
								}

							}
, 							{
								"box" : 								{
									"maxclass" : "outlet",
									"patching_rect" : [ 90.0, 270.0, 25.0, 25.0 ],
									"id" : "obj-14",
									"numinlets" : 1,
									"numoutlets" : 0,
									"comment" : ""
								}

							}
 ],
						"lines" : [ 							{
								"patchline" : 								{
									"source" : [ "obj-2", 0 ],
									"destination" : [ "obj-10", 0 ],
									"hidden" : 0,
									"midpoints" : [  ]
								}

							}
, 							{
								"patchline" : 								{
									"source" : [ "obj-3", 0 ],
									"destination" : [ "obj-2", 0 ],
									"hidden" : 0,
									"midpoints" : [  ]
								}

							}
, 							{
								"patchline" : 								{
									"source" : [ "obj-13", 0 ],
									"destination" : [ "obj-9", 0 ],
									"hidden" : 0,
									"midpoints" : [  ]
								}

							}
, 							{
								"patchline" : 								{
									"source" : [ "obj-4", 0 ],
									"destination" : [ "obj-9", 0 ],
									"hidden" : 0,
									"midpoints" : [ 504.5, 224.0, 592.0, 224.0, 592.0, 80.0, 99.5, 80.0 ]
								}

							}
, 							{
								"patchline" : 								{
									"source" : [ "obj-9", 0 ],
									"destination" : [ "obj-5", 0 ],
									"hidden" : 0,
									"midpoints" : [  ]
								}

							}
, 							{
								"patchline" : 								{
									"source" : [ "obj-9", 0 ],
									"destination" : [ "obj-17", 0 ],
									"hidden" : 0,
									"midpoints" : [  ]
								}

							}
, 							{
								"patchline" : 								{
									"source" : [ "obj-9", 0 ],
									"destination" : [ "obj-16", 0 ],
									"hidden" : 0,
									"midpoints" : [  ]
								}

							}
, 							{
								"patchline" : 								{
									"source" : [ "obj-9", 0 ],
									"destination" : [ "obj-15", 0 ],
									"hidden" : 0,
									"midpoints" : [  ]
								}

							}
, 							{
								"patchline" : 								{
									"source" : [ "obj-17", 0 ],
									"destination" : [ "obj-11", 2 ],
									"hidden" : 0,
									"midpoints" : [  ]
								}

							}
, 							{
								"patchline" : 								{
									"source" : [ "obj-16", 0 ],
									"destination" : [ "obj-11", 1 ],
									"hidden" : 0,
									"midpoints" : [  ]
								}

							}
, 							{
								"patchline" : 								{
									"source" : [ "obj-15", 0 ],
									"destination" : [ "obj-11", 0 ],
									"hidden" : 0,
									"midpoints" : [  ]
								}

							}
, 							{
								"patchline" : 								{
									"source" : [ "obj-9", 0 ],
									"destination" : [ "obj-3", 0 ],
									"hidden" : 0,
									"midpoints" : [  ]
								}

							}
, 							{
								"patchline" : 								{
									"source" : [ "obj-5", 0 ],
									"destination" : [ "obj-6", 0 ],
									"hidden" : 0,
									"midpoints" : [  ]
								}

							}
, 							{
								"patchline" : 								{
									"source" : [ "obj-6", 0 ],
									"destination" : [ "obj-4", 0 ],
									"hidden" : 0,
									"midpoints" : [  ]
								}

							}
, 							{
								"patchline" : 								{
									"source" : [ "obj-10", 0 ],
									"destination" : [ "obj-14", 0 ],
									"hidden" : 0,
									"midpoints" : [  ]
								}

							}
, 							{
								"patchline" : 								{
									"source" : [ "obj-8", 0 ],
									"destination" : [ "obj-14", 0 ],
									"hidden" : 0,
									"midpoints" : [  ]
								}

							}
, 							{
								"patchline" : 								{
									"source" : [ "obj-11", 0 ],
									"destination" : [ "obj-12", 0 ],
									"hidden" : 0,
									"midpoints" : [  ]
								}

							}
, 							{
								"patchline" : 								{
									"source" : [ "obj-12", 0 ],
									"destination" : [ "obj-8", 0 ],
									"hidden" : 0,
									"midpoints" : [  ]
								}

							}
 ]
					}
,
					"saved_object_attributes" : 					{
						"fontname" : "Arial",
						"default_fontsize" : 12.0,
						"globalpatchername" : "",
						"fontface" : 0,
						"fontsize" : 12.0,
						"default_fontface" : 0,
						"default_fontname" : "Arial"
					}

				}

			}
, 			{
				"box" : 				{
					"maxclass" : "newobj",
					"text" : "r step",
					"patching_rect" : [ 30.0, 90.0, 41.0, 20.0 ],
					"outlettype" : [ "" ],
					"id" : "obj-6",
					"fontname" : "Arial",
					"fontsize" : 12.0,
					"numinlets" : 0,
					"numoutlets" : 1
				}

			}
, 			{
				"box" : 				{
					"maxclass" : "newobj",
					"text" : "loadbang",
					"patching_rect" : [ 390.0, 15.0, 60.0, 20.0 ],
					"outlettype" : [ "bang" ],
					"id" : "obj-5",
					"fontname" : "Arial",
					"fontsize" : 12.0,
					"numinlets" : 1,
					"numoutlets" : 1
				}

			}
, 			{
				"box" : 				{
					"maxclass" : "newobj",
					"text" : "cosm.nav",
					"patching_rect" : [ 30.0, 150.0, 62.0, 20.0 ],
					"outlettype" : [ "", "", "" ],
					"id" : "obj-4",
					"fontname" : "Arial",
					"fontsize" : 12.0,
					"numinlets" : 1,
					"numoutlets" : 3
				}

			}
, 			{
				"box" : 				{
					"maxclass" : "newobj",
					"text" : "prepend name",
					"patching_rect" : [ 495.0, 105.0, 88.0, 20.0 ],
					"outlettype" : [ "" ],
					"id" : "obj-3",
					"fontname" : "Arial",
					"fontsize" : 12.0,
					"numinlets" : 1,
					"numoutlets" : 1
				}

			}
, 			{
				"box" : 				{
					"maxclass" : "newobj",
					"text" : "route name",
					"patching_rect" : [ 495.0, 75.0, 71.0, 20.0 ],
					"outlettype" : [ "", "" ],
					"id" : "obj-2",
					"fontname" : "Arial",
					"fontsize" : 12.0,
					"numinlets" : 1,
					"numoutlets" : 2
				}

			}
, 			{
				"box" : 				{
					"maxclass" : "newobj",
					"text" : "patcherargs @name cameraman",
					"patching_rect" : [ 390.0, 45.0, 186.0, 20.0 ],
					"outlettype" : [ "", "" ],
					"id" : "obj-1",
					"fontname" : "Arial",
					"fontsize" : 12.0,
					"numinlets" : 1,
					"numoutlets" : 2
				}

			}
 ],
		"lines" : [ 			{
				"patchline" : 				{
					"source" : [ "obj-29", 0 ],
					"destination" : [ "obj-41", 2 ],
					"hidden" : 0,
					"midpoints" : [ 144.5, 279.5, 218.833328, 279.5 ]
				}

			}
, 			{
				"patchline" : 				{
					"source" : [ "obj-21", 0 ],
					"destination" : [ "obj-29", 0 ],
					"hidden" : 0,
					"midpoints" : [  ]
				}

			}
, 			{
				"patchline" : 				{
					"source" : [ "obj-70", 0 ],
					"destination" : [ "obj-10", 0 ],
					"hidden" : 0,
					"midpoints" : [  ]
				}

			}
, 			{
				"patchline" : 				{
					"source" : [ "obj-28", 0 ],
					"destination" : [ "obj-68", 0 ],
					"hidden" : 0,
					"midpoints" : [ 294.5, 114.5, 339.5, 114.5 ]
				}

			}
, 			{
				"patchline" : 				{
					"source" : [ "obj-26", 0 ],
					"destination" : [ "obj-68", 0 ],
					"hidden" : 0,
					"midpoints" : [  ]
				}

			}
, 			{
				"patchline" : 				{
					"source" : [ "obj-68", 0 ],
					"destination" : [ "obj-69", 0 ],
					"hidden" : 0,
					"midpoints" : [  ]
				}

			}
, 			{
				"patchline" : 				{
					"source" : [ "obj-69", 0 ],
					"destination" : [ "obj-70", 0 ],
					"hidden" : 0,
					"midpoints" : [  ]
				}

			}
, 			{
				"patchline" : 				{
					"source" : [ "obj-30", 0 ],
					"destination" : [ "obj-41", 3 ],
					"hidden" : 0,
					"midpoints" : [ 339.5, 294.5, 248.5, 294.5 ]
				}

			}
, 			{
				"patchline" : 				{
					"source" : [ "obj-24", 0 ],
					"destination" : [ "obj-21", 0 ],
					"hidden" : 0,
					"midpoints" : [  ]
				}

			}
, 			{
				"patchline" : 				{
					"source" : [ "obj-10", 0 ],
					"destination" : [ "obj-23", 0 ],
					"hidden" : 0,
					"midpoints" : [  ]
				}

			}
, 			{
				"patchline" : 				{
					"source" : [ "obj-23", 0 ],
					"destination" : [ "obj-30", 0 ],
					"hidden" : 0,
					"midpoints" : [  ]
				}

			}
, 			{
				"patchline" : 				{
					"source" : [ "obj-9", 0 ],
					"destination" : [ "obj-7", 0 ],
					"hidden" : 0,
					"midpoints" : [ 159.5, 459.5, 39.5, 459.5 ]
				}

			}
, 			{
				"patchline" : 				{
					"source" : [ "obj-5", 0 ],
					"destination" : [ "obj-15", 0 ],
					"hidden" : 0,
					"midpoints" : [ 399.5, 39.5, 84.5, 39.5 ]
				}

			}
, 			{
				"patchline" : 				{
					"source" : [ "obj-15", 0 ],
					"destination" : [ "obj-4", 0 ],
					"hidden" : 0,
					"midpoints" : [ 84.5, 137.0, 39.5, 137.0 ]
				}

			}
, 			{
				"patchline" : 				{
					"source" : [ "obj-6", 0 ],
					"destination" : [ "obj-4", 0 ],
					"hidden" : 0,
					"midpoints" : [  ]
				}

			}
, 			{
				"patchline" : 				{
					"source" : [ "obj-2", 0 ],
					"destination" : [ "obj-3", 0 ],
					"hidden" : 0,
					"midpoints" : [  ]
				}

			}
, 			{
				"patchline" : 				{
					"source" : [ "obj-5", 0 ],
					"destination" : [ "obj-1", 0 ],
					"hidden" : 0,
					"midpoints" : [  ]
				}

			}
, 			{
				"patchline" : 				{
					"source" : [ "obj-3", 0 ],
					"destination" : [ "obj-4", 0 ],
					"hidden" : 0,
					"midpoints" : [ 504.5, 140.5, 39.5, 140.5 ]
				}

			}
, 			{
				"patchline" : 				{
					"source" : [ "obj-1", 1 ],
					"destination" : [ "obj-2", 0 ],
					"hidden" : 0,
					"midpoints" : [ 566.5, 69.5, 504.5, 69.5 ]
				}

			}
, 			{
				"patchline" : 				{
					"source" : [ "obj-41", 0 ],
					"destination" : [ "obj-7", 0 ],
					"hidden" : 0,
					"midpoints" : [ 159.5, 329.0, 39.5, 329.0 ]
				}

			}
, 			{
				"patchline" : 				{
					"source" : [ "obj-27", 0 ],
					"destination" : [ "obj-7", 0 ],
					"hidden" : 0,
					"midpoints" : [ 159.5, 429.0, 39.5, 429.0 ]
				}

			}
, 			{
				"patchline" : 				{
					"source" : [ "obj-46", 0 ],
					"destination" : [ "obj-27", 0 ],
					"hidden" : 0,
					"midpoints" : [  ]
				}

			}
, 			{
				"patchline" : 				{
					"source" : [ "obj-4", 0 ],
					"destination" : [ "obj-7", 0 ],
					"hidden" : 0,
					"midpoints" : [  ]
				}

			}
 ]
	}

}
